<svg width="100" height="30" fill="none" xmlns="http://www.w3.org/2000/svg"><path d="M1.98 20H.35L4 9.82H5.8L9.45 20H7.82l-2.88-8.33h-.08L1.98 20Zm.27-3.99h5.3v1.3h-5.3V16ZM10.8 20v-7.64h1.49v3.2H13l2.53-3.2h1.83l-2.95 3.72L17.4 20h-1.85l-2.3-3.05h-.96V20H10.8Zm7.75 0v-7.64h1.5v3.2h.7l2.53-3.2h1.84l-2.96 3.72 3 3.92H23.3L21 16.95h-.97V20h-1.49Zm9.98.17c-.49 0-.92-.1-1.31-.27-.4-.18-.7-.45-.93-.79a2.27 2.27 0 0 1-.34-1.27c0-.43.08-.78.25-1.06.16-.28.39-.5.67-.66.28-.17.6-.29.94-.37.35-.08.7-.15 1.07-.19l1.11-.13c.28-.04.5-.1.62-.17.13-.08.2-.21.2-.4v-.03c0-.43-.13-.77-.37-1-.24-.24-.6-.36-1.09-.36-.5 0-.9.1-1.18.33-.28.22-.48.46-.6.73l-1.39-.32a2.69 2.69 0 0 1 1.84-1.75 4.33 4.33 0 0 1 2.28-.09c.35.07.67.2.97.4.3.18.55.45.74.8.2.35.29.8.29 1.36V20h-1.45v-1.04h-.06a2.3 2.3 0 0 1-1.17 1.03c-.31.12-.67.18-1.1.18Zm.32-1.2c.41 0 .76-.08 1.06-.24a1.7 1.7 0 0 0 .9-1.48v-.99a.78.78 0 0 1-.3.15 4.8 4.8 0 0 1-.52.11 60.57 60.57 0 0 1-1.02.15c-.29.04-.55.1-.79.18-.24.09-.42.21-.57.38a.93.93 0 0 0-.2.63c0 .37.13.65.4.84.27.18.62.28 1.04.28Zm6.1 3.9a3.1 3.1 0 0 1-1.02-.17l.36-1.22c.27.07.51.1.72.1.21-.01.4-.1.56-.24.17-.15.32-.4.44-.73l.19-.51-2.8-7.74H35l1.93 5.93H37l1.93-5.93h1.6l-3.15 8.66c-.15.4-.33.73-.56 1-.22.29-.5.5-.8.63-.31.14-.68.21-1.09.21Zm12.16-7.33v1.29h-4.14v-1.29h4.14Zm-3.72-3.18V20h-1.46v-7.64h1.46Zm4.76 0V20H46.7v-7.64h1.45Zm1.04 1.29v-1.29h6.44v1.29h-2.49V20H51.7v-6.35h-2.5Z" fill="#000"/><rect x="70" width="30" height="30" rx="6" fill="#F9F9F9"/><path fill-rule="evenodd" clip-rule="evenodd" d="M86.43 16.97a3.75 3.75 0 1 0-2.86 0c-1.4.23-2.68.8-3.76 1.61l1.38 1.84a6.32 6.32 0 0 1 7.62 0l1.38-1.84a8.61 8.61 0 0 0-3.76-1.61Z" fill="#000"/></svg>