<svg width="72" height="21" fill="none" xmlns="http://www.w3.org/2000/svg"><rect width="72" height="21" rx="10.5" fill="#F9F9F9"/><path d="M16.54 9h-.88a1.83 1.83 0 0 0-.74-1.15 1.99 1.99 0 0 0-.6-.3 2.42 2.42 0 0 0-1.9.24c-.36.22-.64.55-.85.98-.2.43-.31.96-.31 1.6 0 .62.1 1.15.31 1.59a2.22 2.22 0 0 0 2.05 1.32c.24 0 .47-.04.7-.1.21-.07.42-.17.6-.3a1.87 1.87 0 0 0 .74-1.15h.88a2.73 2.73 0 0 1-1.9 2.21 3.27 3.27 0 0 1-2.68-.3c-.48-.3-.86-.73-1.14-1.29a4.43 4.43 0 0 1-.41-1.99c0-.76.13-1.43.41-1.98.28-.56.66-1 1.14-1.3.48-.3 1.04-.45 1.66-.45.36 0 .7.05 1.03.16A2.82 2.82 0 0 1 16.18 8c.17.3.3.63.36 1Zm3.53 5.11c-.5 0-.93-.11-1.3-.35a2.39 2.39 0 0 1-.87-.98c-.2-.42-.3-.92-.3-1.48 0-.57.1-1.06.3-1.49.21-.42.5-.75.87-.98.37-.24.8-.36 1.3-.36a2.35 2.35 0 0 1 2.16 1.34c.2.43.3.92.3 1.5 0 .55-.1 1.05-.3 1.47-.21.42-.5.75-.87.98-.37.24-.8.35-1.3.35Zm0-.75c.37 0 .68-.1.92-.29.24-.19.42-.44.54-.75.11-.32.17-.65.17-1.02 0-.36-.06-.7-.17-1.02-.12-.31-.3-.57-.54-.76-.24-.2-.55-.3-.92-.3-.38 0-.68.1-.93.3-.24.2-.42.45-.53.76-.12.32-.18.66-.18 1.02 0 .37.06.7.18 1.02.11.3.3.56.53.75.25.2.55.3.93.3Zm4.15-4.81 1.3 2.23 1.31-2.23h.97l-1.76 2.72L27.8 14h-.97l-1.3-2.12L24.21 14h-.97L25 11.27l-1.74-2.72h.97Zm4.77 7.5v-7.5h.81v.86h.1l.26-.36c.11-.15.27-.28.47-.4.21-.12.5-.18.85-.18A2.17 2.17 0 0 1 33.5 9.8c.2.42.3.91.3 1.49 0 .57-.1 1.08-.3 1.5-.2.42-.46.75-.81.98-.35.23-.75.34-1.2.34-.36 0-.64-.05-.85-.17a1.56 1.56 0 0 1-.48-.4c-.12-.15-.2-.28-.27-.38h-.07v2.89H29Zm.83-4.78c0 .41.06.78.18 1.1.12.3.3.55.53.73.23.17.51.26.85.26.35 0 .64-.1.88-.28.23-.18.41-.43.53-.75.12-.32.18-.67.18-1.06 0-.38-.06-.73-.18-1.03a1.6 1.6 0 0 0-.53-.74 1.4 1.4 0 0 0-.88-.27 1.4 1.4 0 0 0-1.38.97c-.12.3-.18.67-.18 1.07Zm6.87 2.86c-.34 0-.66-.07-.94-.2-.28-.13-.5-.32-.67-.57a1.61 1.61 0 0 1-.25-.9c0-.32.06-.57.19-.77.12-.2.28-.35.49-.46.2-.11.43-.2.68-.25a34.19 34.19 0 0 1 1.56-.23c.21-.02.36-.06.46-.12.1-.05.14-.15.14-.28v-.03c0-.35-.1-.62-.28-.82-.2-.19-.48-.29-.87-.29-.4 0-.71.1-.94.27-.22.17-.38.36-.48.56l-.8-.29a1.91 1.91 0 0 1 1.36-1.16 3.24 3.24 0 0 1 1.44-.05c.23.04.45.12.66.25.22.13.4.32.54.58.14.26.21.6.21 1.04V14h-.84v-.74h-.04c-.05.12-.15.25-.28.38-.13.14-.31.25-.53.35-.22.1-.49.14-.8.14Zm.13-.76c.33 0 .61-.06.84-.19a1.33 1.33 0 0 0 .7-1.15v-.77c-.04.04-.12.08-.24.12a3.95 3.95 0 0 1-.86.15l-.35.04a3.2 3.2 0 0 0-.62.14c-.18.06-.33.15-.45.28a.71.71 0 0 0-.17.5c0 .3.1.52.32.66.22.15.5.22.83.22Zm7.55-2.48v.78h-3v-.78h3Zm-2.81-2.34V14h-.84V8.55h.84Zm3.45 0V14h-.84V8.55h.84Zm2.37 4.21 2.63-4.21h.96V14h-.83V9.78L47.52 14h-.98V8.55h.84v4.21Zm4.39-3.43v-.78h4.43v.78h-1.8V14h-.83V9.33h-1.8Zm6.38 1.19h1.56c.64 0 1.13.16 1.46.49.34.32.51.73.51 1.23a1.65 1.65 0 0 1-.9 1.53c-.29.15-.65.23-1.07.23h-2.29V8.55h.84v4.67h1.45c.33 0 .6-.09.81-.26.22-.18.32-.4.32-.68 0-.29-.1-.52-.32-.7a1.21 1.21 0 0 0-.81-.28h-1.56v-.78Z" fill="#000"/></svg>